<svg width="16" height="16" viewBox="0 0 16 16" fill="none" xmlns="http://www.w3.org/2000/svg">
<path opacity="0.4" d="M8.37416 15.1338C7.95309 15.1351 7.54906 14.9676 7.2523 14.6689L1.03443 8.45263C0.706342 8.12562 0.538142 7.67119 0.574263 7.20938L0.970962 1.99992C1.02763 1.21579 1.65282 0.592966 2.43716 0.539279L7.64661 0.14258C7.68787 0.133851 7.72833 0.133851 7.76959 0.133851C8.18982 0.133348 8.59284 0.300726 8.88908 0.598784L15.1069 6.81426C15.4047 7.11187 15.5719 7.51557 15.5719 7.93653C15.5719 8.35748 15.4047 8.76119 15.1069 9.05879L9.49603 14.6689C9.19916 14.9675 8.7952 15.1349 8.37416 15.1338ZM5.00777 2.98374C4.28961 2.98394 3.66111 3.46647 3.4754 4.16021C3.28969 4.85395 3.59308 5.58594 4.2151 5.9449C4.83712 6.30386 5.62269 6.2003 6.13043 5.6924L6.13598 5.68764L6.14154 5.68209L6.13519 5.68764C6.58619 5.23267 6.71937 4.55114 6.47283 3.95986C6.22629 3.36858 5.64839 2.98355 5.00777 2.98374Z" fill="white"/>
</svg>
