<svg width="18" height="21" viewBox="0 0 18 21" fill="none" xmlns="http://www.w3.org/2000/svg">
<path fill-rule="evenodd" clip-rule="evenodd" d="M4.43052 3.67488C4.79277 2.44893 6.04951 0.990836 7.10612 0.570376C7.88674 0.259693 9.93803 0.252233 10.7437 0.55709C11.8919 0.9913 13.1248 2.41373 13.5114 3.75062C14.7883 8.16475 9.67248 11.6 6.0066 8.79008C4.52443 7.65386 3.87624 5.5504 4.43052 3.67488ZM0.177215 15.0257C0.146139 12.9756 1.4321 11.9531 4.59542 11.5126C6.52542 11.2437 12.8992 11.3702 14.5653 11.7343C18.101 12.5067 18.8909 15.3965 16.2833 18.0174C14.805 19.503 12.2872 20.1579 9.498 20.2999C7.77975 20.3873 6.25895 20.3141 4.97344 19.9216C2.06221 19.0331 0.208988 17.1413 0.177215 15.0257Z" fill="black"/>
</svg>
