<svg width="16" height="16" viewBox="0 0 16 16" fill="none" xmlns="http://www.w3.org/2000/svg">
<path opacity="0.4" d="M8 15.6339C3.85786 15.6339 0.5 12.276 0.5 8.13385C0.5 3.99171 3.85786 0.63385 8 0.63385C12.1421 0.63385 15.5 3.99171 15.5 8.13385C15.4955 12.2741 12.1403 15.6293 8 15.6339ZM8 2.13385C4.68629 2.13385 2 4.82014 2 8.13385C2 11.4476 4.68629 14.1339 8 14.1339C11.3137 14.1339 14 11.4476 14 8.13385C13.9963 4.82168 11.3122 2.13757 8 2.13385ZM8 12.6339C6.81502 12.6539 5.69495 12.0939 5 11.1339C4.66256 10.6826 4.40856 10.1746 4.25 9.63385H11.75C11.75 9.63385 11.75 9.63385 11.75 9.63985C11.589 10.1778 11.3352 10.6834 11 11.1339C10.305 12.0938 9.18496 12.6538 8 12.6339ZM5.375 8.13385C4.75368 8.13385 4.25 7.63017 4.25 7.00885C4.25 6.38753 4.75368 5.88385 5.375 5.88385C5.99632 5.88385 6.5 6.38753 6.5 7.00885C6.5 7.63017 5.99632 8.13385 5.375 8.13385ZM10.6198 8.12335C10.0013 8.12335 9.5 7.62202 9.5 7.0036C9.5 6.38518 10.0013 5.88385 10.6198 5.88385C11.2382 5.88385 11.7395 6.38518 11.7395 7.0036C11.7387 7.62168 11.2378 8.12252 10.6198 8.12335Z" fill="white"/>
</svg>
