<svg width="26" height="26" viewBox="0 0 26 26" fill="none" xmlns="http://www.w3.org/2000/svg">
<path fill-rule="evenodd" clip-rule="evenodd" d="M12.7675 1.39946C12.7148 1.52563 11.1218 4.20044 9.22759 7.34352C7.33336 10.4865 5.76777 13.0993 5.7484 13.1498C5.72325 13.2154 6.75233 13.8555 9.35681 15.3945L13.0005 17.5474L16.6432 15.3933C19.2601 13.8457 20.2759 13.2131 20.2505 13.1468C20.1189 12.8038 13.0354 1.17001 12.9581 1.17001C12.906 1.17001 12.8202 1.27323 12.7675 1.39946ZM5.75705 14.6981C5.89745 14.9382 12.9704 24.8898 13 24.8889C13.0489 24.8874 20.2803 14.6686 20.2523 14.6406C20.2259 14.6143 13.4666 18.5953 13.1847 18.8032L13.0118 18.9307L9.51216 16.8645C7.58732 15.7281 5.94139 14.7525 5.85455 14.6965C5.71057 14.6038 5.70193 14.6039 5.75705 14.6981Z" fill="#6374C4"/>
</svg>
