<svg width="20" height="20" viewBox="0 0 20 20" fill="none" xmlns="http://www.w3.org/2000/svg">
<g clip-path="url(#clip0_1_541)">
<path d="M10.001 20C4.48011 19.9939 0.00606298 15.5203 0 10V9.80001C0.109942 4.30455 4.63505 -0.0720257 10.1317 0.000898217C15.6283 0.0738221 20.0357 4.5689 19.9998 10.0653C19.9639 15.5618 15.4981 19.9989 10.001 20Z" fill="#FFED18"/>
<path d="M10.001 20C4.48011 19.9939 0.00606298 15.5203 0 10V9.80001C0.109942 4.30455 4.63505 -0.0720257 10.1317 0.000898217C15.6283 0.0738221 20.0357 4.5689 19.9998 10.0653C19.9639 15.5618 15.4981 19.9989 10.001 20ZM10.001 2.00002C5.58411 2.00443 2.00461 5.58356 2.0002 10H10.001V2.00002Z" fill="black"/>
</g>
<defs>
<clipPath id="clip0_1_541">
<rect width="20" height="20" fill="white"/>
</clipPath>
</defs>
</svg>
