<svg width="16" height="16" viewBox="0 0 16 16" fill="none" xmlns="http://www.w3.org/2000/svg">
<path opacity="0.4" d="M7.98779 15.4109C3.85428 15.4063 0.504539 12.0511 0.5 7.91091C0.794829 7.99432 1.09966 8.03696 1.40602 8.03766C2.4195 8.0451 3.37166 7.55226 3.95187 6.71992C4.47059 5.96961 4.5802 5.00913 4.2439 4.16093C4.45893 4.19934 4.6769 4.21892 4.89533 4.21943C5.8664 4.22668 6.78806 3.79118 7.4 3.03594C7.99883 2.303 8.23297 1.33735 8.03646 0.41095C12.1719 0.424412 15.5134 3.79317 15.5 7.93528C15.4865 12.0774 12.1232 15.4243 7.98779 15.4109ZM8.55911 12.8369C8.6743 12.8865 8.79838 12.912 8.92377 12.9119C9.30217 12.9115 9.64319 12.6832 9.78815 12.3331C9.93311 11.983 9.85353 11.5799 9.58644 11.3114C9.41041 11.1358 9.17218 11.0371 8.92377 11.0369C8.4794 11.0379 8.09702 11.3518 8.00865 11.788C7.92028 12.2241 8.1503 12.6624 8.55911 12.8369ZM4.18399 11.5671C4.33404 11.6293 4.49486 11.6611 4.65722 11.6609C5.16381 11.6608 5.62008 11.354 5.81204 10.8844C6.004 10.4148 5.89357 9.87561 5.53255 9.51965C5.29917 9.28944 4.98477 9.1604 4.65722 9.1604C3.96832 9.16123 3.41017 9.72062 3.40976 10.4106C3.40988 10.9122 3.70858 11.3654 4.16902 11.5626H4.17276H4.181L4.18399 11.5671ZM11.2457 9.6869C11.749 9.8986 12.3313 9.75796 12.6829 9.33975C13.0345 8.92154 13.0739 8.32291 12.78 7.86216C12.6879 7.71864 12.5677 7.59539 12.4266 7.49991C12.0389 7.23774 11.5375 7.21461 11.1275 7.43999C10.7175 7.66537 10.4677 8.10143 10.4803 8.56973C10.4929 9.03803 10.7658 9.45997 11.1873 9.6629H11.1783L11.2008 9.67265L11.2158 9.67865H11.2113C11.222 9.68209 11.2325 9.6861 11.2427 9.69065L11.2457 9.6869ZM7.98779 6.66067C7.68914 6.66017 7.43194 6.87154 7.3741 7.16501C7.31625 7.45848 7.47395 7.7519 7.75038 7.86512C8.02681 7.97835 8.34458 7.87968 8.50861 7.6297C8.67264 7.37973 8.637 7.04841 8.42358 6.83917C8.36794 6.78428 8.30238 6.7405 8.2304 6.71017L8.21692 6.70417L8.1967 6.69667C8.12966 6.6727 8.05898 6.66052 7.98779 6.66067ZM10.7957 3.53618C10.3166 3.53499 9.91446 3.8975 9.86534 4.37487C9.81622 4.85224 10.1361 5.28928 10.6054 5.38599C11.0747 5.48271 11.5408 5.20767 11.6838 4.74965C11.8269 4.29164 11.6003 3.79956 11.1596 3.61118H11.1521C11.0394 3.56295 10.9183 3.53747 10.7957 3.53618ZM2.37195 6.03592C2.02747 6.03592 1.74821 5.75621 1.74821 5.41117C1.74821 5.06613 2.02747 4.78643 2.37195 4.78643C2.71643 4.78643 2.99568 5.06613 2.99568 5.41117C2.99527 5.75604 2.71626 6.03551 2.37195 6.03592ZM1.43597 4.16093C0.91905 4.16093 0.5 3.7412 0.5 3.22343C0.5 2.70567 0.91905 2.28594 1.43597 2.28594C1.9529 2.28594 2.37195 2.70567 2.37195 3.22343C2.37112 3.74086 1.95256 4.1601 1.43597 4.16093ZM5.17987 2.91069C4.66295 2.91069 4.2439 2.49096 4.2439 1.97319C4.2439 1.45543 4.66295 1.0357 5.17987 1.0357C5.69679 1.0357 6.11584 1.45543 6.11584 1.97319C6.11584 2.49108 5.69692 2.91102 5.17987 2.91144V2.91069ZM2.99643 1.66119C2.65205 1.66119 2.37283 1.38164 2.3727 1.0367C2.37256 0.691756 2.65155 0.411976 2.99593 0.4117C3.34031 0.411424 3.61975 0.690756 3.62016 1.0357C3.62016 1.38086 3.34103 1.66078 2.99643 1.66119Z" fill="white"/>
</svg>
